<svg width="110" height="110" viewBox="0 0 110 110" fill="none" xmlns="http://www.w3.org/2000/svg">
<path d="M103.21 43.1C101.26 41.065 99.245 38.965 98.435 37.01C97.685 35.195 97.645 32.51 97.6 29.67C97.53 24.98 97.45 19.67 93.89 16.11C90.33 12.55 85 12.47 80.33 12.4C77.49 12.355 74.83 12.315 72.99 11.565C71.035 10.755 68.935 8.74 66.9 6.79C63.58 3.61 59.82 0 55 0C50.18 0 46.42 3.61 43.1 6.79C41.065 8.74 38.965 10.755 37.01 11.565C35.195 12.315 32.51 12.355 29.67 12.4C24.98 12.47 19.67 12.55 16.11 16.11C12.55 19.67 12.47 25 12.4 29.67C12.355 32.51 12.315 35.17 11.565 37.01C10.755 38.965 8.74 41.065 6.79 43.1C3.61 46.42 0 50.18 0 55C0 59.82 3.61 63.58 6.79 66.9C8.74 68.935 10.755 71.035 11.565 72.99C12.315 74.805 12.355 77.49 12.4 80.33C12.47 85.02 12.55 90.33 16.11 93.89C19.67 97.45 25 97.53 29.67 97.6C32.51 97.645 35.17 97.685 37.01 98.435C38.965 99.245 41.065 101.26 43.1 103.21C46.42 106.39 50.18 110 55 110C59.82 110 63.58 106.39 66.9 103.21C68.935 101.26 71.035 99.245 72.99 98.435C74.805 97.685 77.49 97.645 80.33 97.6C85.02 97.53 90.33 97.45 93.89 93.89C97.45 90.33 97.53 85.02 97.6 80.33C97.645 77.49 97.685 74.83 98.435 72.99C99.245 71.035 101.26 68.935 103.21 66.9C106.39 63.58 110 59.82 110 55C110 50.18 106.39 46.42 103.21 43.1ZM98.88 62.75C96.545 65.18 94.13 67.7 92.88 70.7C91.69 73.57 91.64 76.96 91.59 80.24C91.535 83.96 91.475 87.81 89.64 89.65C87.805 91.49 83.95 91.545 80.23 91.6C76.95 91.65 73.56 91.7 70.69 92.89C67.69 94.13 65.19 96.545 62.735 98.89C60.11 101.39 57.395 104.01 54.99 104.01C52.585 104.01 49.87 101.405 47.24 98.89C44.81 96.555 42.29 94.14 39.29 92.89C36.42 91.7 33.03 91.65 29.75 91.6C26.03 91.545 22.18 91.485 20.34 89.65C18.5 87.815 18.445 83.96 18.39 80.24C18.34 76.96 18.29 73.57 17.1 70.7C15.86 67.7 13.445 65.2 11.1 62.745C8.605 60.12 6 57.405 6 55C6 52.595 8.605 49.88 11.12 47.25C13.455 44.82 15.87 42.3 17.12 39.3C18.31 36.43 18.36 33.04 18.41 29.76C18.465 26.04 18.525 22.19 20.36 20.35C22.195 18.51 26.05 18.455 29.77 18.4C33.05 18.35 36.44 18.3 39.31 17.11C42.31 15.87 44.81 13.455 47.265 11.11C49.88 8.605 52.595 6 55 6C57.405 6 60.12 8.605 62.75 11.12C65.18 13.455 67.7 15.87 70.7 17.12C73.57 18.31 76.96 18.36 80.24 18.41C83.96 18.465 87.81 18.525 89.65 20.36C91.49 22.195 91.545 26.05 91.6 29.77C91.65 33.05 91.7 36.44 92.89 39.31C94.13 42.31 96.545 44.81 98.89 47.265C101.39 49.89 104.01 52.605 104.01 55.01C104.01 57.415 101.395 60.12 98.88 62.75ZM77.12 40.88C77.6818 41.4425 77.9974 42.205 77.9974 43C77.9974 43.795 77.6818 44.5575 77.12 45.12L49.12 73.12C48.5575 73.6818 47.795 73.9974 47 73.9974C46.205 73.9974 45.4425 73.6818 44.88 73.12L32.88 61.12C32.3501 60.5513 32.0616 59.7991 32.0753 59.0219C32.089 58.2447 32.4039 57.5032 32.9535 56.9535C33.5032 56.4039 34.2447 56.089 35.0219 56.0753C35.7991 56.0616 36.5513 56.3501 37.12 56.88L47 66.755L72.88 40.88C73.4425 40.3182 74.205 40.0026 75 40.0026C75.795 40.0026 76.5575 40.3182 77.12 40.88Z" fill="#FFB703"/>
</svg>
