<svg width="21" height="14" viewBox="0 0 21 14" fill="none" xmlns="http://www.w3.org/2000/svg">
<path d="M6.61936 7.02308C5.94418 7.60809 5.0926 7.95024 4.20036 7.99499C3.30812 8.03973 2.42658 7.78451 1.69626 7.26999C0.965938 6.75547 0.42888 6.01127 0.170692 5.15603C-0.0874955 4.30079 -0.0519507 3.38374 0.271661 2.55105C0.595272 1.71836 1.18832 1.01797 1.95627 0.56152C2.72423 0.105073 3.62288 -0.081155 4.50898 0.0325209C5.39508 0.146197 6.21762 0.553233 6.84549 1.18875C7.47336 1.82426 7.87041 2.65167 7.97336 3.53908C8.32936 5.34908 8.32536 7.50608 7.50936 9.43908C6.64736 11.4791 4.90835 13.1991 1.93935 13.9761C1.84374 14.0021 1.74393 14.0089 1.64567 13.9961C1.54742 13.9833 1.45267 13.9512 1.36691 13.9015C1.28115 13.8519 1.20607 13.7858 1.14601 13.707C1.08595 13.6282 1.0421 13.5382 1.017 13.4424C0.991897 13.3465 0.986037 13.2466 0.999757 13.1485C1.01348 13.0504 1.04651 12.9559 1.09694 12.8707C1.14736 12.7854 1.21419 12.7109 1.29356 12.6516C1.37293 12.5923 1.46327 12.5493 1.55936 12.5251C4.09036 11.8621 5.45136 10.4551 6.12736 8.85508C6.37117 8.26869 6.53659 7.65272 6.61936 7.02308Z" fill="#0029FF" fill-opacity="0.18"/>
<path d="M18.6194 7.02308C17.9442 7.60809 17.0926 7.95024 16.2004 7.99499C15.3081 8.03973 14.4266 7.78451 13.6963 7.26999C12.9659 6.75547 12.4289 6.01127 12.1707 5.15603C11.9125 4.30079 11.948 3.38374 12.2717 2.55105C12.5953 1.71836 13.1883 1.01797 13.9563 0.56152C14.7242 0.105073 15.6229 -0.081155 16.509 0.0325209C17.3951 0.146197 18.2176 0.553233 18.8455 1.18875C19.4734 1.82426 19.8704 2.65167 19.9734 3.53908C20.3294 5.34908 20.3254 7.50608 19.5094 9.43908C18.6474 11.4791 16.9084 13.1991 13.9394 13.9761C13.8437 14.0021 13.7439 14.0089 13.6457 13.9961C13.5474 13.9833 13.4527 13.9512 13.3669 13.9015C13.2811 13.8519 13.2061 13.7858 13.146 13.707C13.0859 13.6282 13.0421 13.5382 13.017 13.4424C12.9919 13.3465 12.986 13.2466 12.9998 13.1485C13.0135 13.0504 13.0465 12.9559 13.0969 12.8707C13.1474 12.7854 13.2142 12.7109 13.2936 12.6516C13.3729 12.5923 13.4633 12.5493 13.5594 12.5251C16.0904 11.8621 17.4514 10.4551 18.1274 8.85508C18.3712 8.26869 18.5366 7.65272 18.6194 7.02308Z" fill="#0029FF" fill-opacity="0.18"/>
</svg>
