<svg width="508" height="263" viewBox="0 0 508 263" fill="none" xmlns="http://www.w3.org/2000/svg">
<path d="M73.0161 212.38V143.08H107.963C113.375 143.08 117.929 143.773 121.625 145.159C125.387 146.545 128.258 148.492 130.238 151C132.218 153.508 133.208 156.478 133.208 159.91C133.208 163.936 132.152 167.335 130.04 170.107C127.994 172.813 124.958 174.628 120.932 175.552V173.77C123.902 174.496 126.575 175.618 128.951 177.136C131.393 178.654 133.307 180.601 134.693 182.977C136.145 185.287 136.871 188.026 136.871 191.194C136.871 195.022 136.079 198.289 134.495 200.995C132.977 203.701 130.898 205.912 128.258 207.628C125.684 209.278 122.78 210.499 119.546 211.291C116.378 212.017 113.045 212.38 109.547 212.38H73.0161ZM91.3311 196.639H109.349C111.065 196.639 112.517 196.408 113.705 195.946C114.959 195.484 115.949 194.758 116.675 193.768C117.401 192.778 117.764 191.557 117.764 190.105C117.764 188.521 117.335 187.3 116.477 186.442C115.619 185.584 114.497 184.957 113.111 184.561C111.791 184.099 110.372 183.868 108.854 183.868H91.3311V196.639ZM91.3311 170.305H105.785C107.501 170.305 108.986 170.074 110.24 169.612C111.494 169.15 112.451 168.49 113.111 167.632C113.771 166.708 114.101 165.652 114.101 164.464C114.101 162.616 113.342 161.23 111.824 160.306C110.306 159.316 108.194 158.821 105.488 158.821H91.3311V170.305ZM154.687 212.38V143.08H210.622V159.217H173.497V196.243H212.107V212.38H154.687ZM164.389 184.858V169.612H206.662V184.858H164.389ZM231.234 212.38V143.08H250.836V212.38H231.234ZM240.045 187.531V171.79H281.13V187.531H240.045ZM240.54 160.009V143.08H284.991V160.009H240.54ZM304.214 212.38V196.045H319.064V159.415H304.214V143.08H353.417V159.415H338.666V196.045H353.417V212.38H304.214ZM393.931 212.38V160.009H370.171V143.08H437.986V160.009H413.533V212.38H393.931Z" fill="#263C87"/>
<path fill-rule="evenodd" clip-rule="evenodd" d="M93.6903 262.04C73.1956 262.04 55.3846 257.526 40.2576 248.499C25.1305 239.471 11.7113 225.93 0 207.875L23.0566 191.406C29.4002 200.922 36.2318 208.973 43.5514 215.561C50.8709 221.905 58.8004 226.906 67.3399 230.566C75.8794 233.982 85.0288 235.69 94.7882 235.69C106.5 235.69 117.235 233.372 126.994 228.736C130.949 226.903 134.579 224.785 137.886 222.38H174.664C166.435 234.611 155.424 244.293 141.633 251.427C127.726 258.502 111.745 262.04 93.6903 262.04ZM174.982 222.38C178.218 226.932 181.868 231.125 185.934 234.958C194.473 243.009 204.477 249.231 215.944 253.623C227.655 258.014 240.099 260.21 253.274 260.21C271.085 260.21 286.944 256.306 300.851 248.499C312.593 241.818 322.235 233.206 329.777 222.661C345.948 246.623 373.35 262.38 404.433 262.38C454.139 262.38 494.433 222.086 494.433 172.38C494.433 122.675 454.139 82.3802 404.433 82.3802C373.817 82.3802 346.772 97.6674 330.514 121.025C323.277 111.128 314.244 103.115 303.413 96.9841C290.482 89.4206 275.964 85.6388 259.861 85.6388C250.102 85.6388 240.831 86.9807 232.047 89.6646C225.084 91.5986 218.582 94.2993 212.539 97.7665C217.671 89.2805 223.198 81.0902 229.119 73.1955L279.99 3.65977L278.526 0H248.15L204.965 61.4843C198.133 70.9997 191.911 80.6371 186.3 90.3965C180.688 99.9119 175.808 109.305 171.661 118.577C170.53 121.037 169.472 123.479 168.487 125.903C167.052 124.258 165.542 122.67 163.958 121.139C156.638 113.819 147.855 108.207 137.608 104.304C127.604 100.156 116.869 98.082 105.402 98.082C104.088 98.082 102.79 98.1186 101.505 98.1916L178.963 20.1288L172.01 2.19586H17.9329V28.9122H136.089L49.407 118.211L58.9224 139.072C64.0461 135.412 68.8038 132.606 73.1956 130.654C77.8313 128.702 82.467 127.36 87.1027 126.628C91.7384 125.652 96.3741 125.164 101.01 125.164C111.989 125.164 121.871 127.36 130.654 131.752C131.689 132.269 132.698 132.812 133.682 133.38H202.607C207.093 128.582 212.392 124.501 218.506 121.139C228.265 115.527 239.611 112.721 252.542 112.721C265.229 112.721 276.452 115.527 286.212 121.139C292.265 124.468 297.521 128.549 301.979 133.38H358.836C369.84 120.526 386.185 112.38 404.433 112.38C437.57 112.38 464.433 139.243 464.433 172.38C464.433 205.517 437.57 232.38 404.433 232.38C392.166 232.38 380.758 228.699 371.255 222.38H290.849C289.02 223.596 287.108 224.738 285.114 225.808C275.11 230.932 264.131 233.494 252.176 233.494C239.489 233.494 228.265 230.688 218.506 225.076C217.017 224.22 215.576 223.322 214.184 222.38H174.982Z" fill="#FFB803"/>
</svg>
